<svg width="29" height="29" viewBox="0 0 29 29" fill="none" xmlns="http://www.w3.org/2000/svg">
<circle cx="14.5" cy="14.5" r="14.5" fill="#D9D9D9"/>
<circle cx="14.5" cy="14.5" r="14.5" fill="url(#paint0_linear_42_667)"/>
<path d="M13.2929 20.7071C13.6834 21.0976 14.3166 21.0976 14.7071 20.7071L21.0711 14.3431C21.4616 13.9526 21.4616 13.3195 21.0711 12.9289C20.6805 12.5384 20.0474 12.5384 19.6568 12.9289L14 18.5858L8.34314 12.9289C7.95262 12.5384 7.31945 12.5384 6.92893 12.9289C6.5384 13.3195 6.5384 13.9526 6.92893 14.3432L13.2929 20.7071ZM13 19L13 20L15 20L15 19L13 19Z" fill="white"/>
<defs>
<linearGradient id="paint0_linear_42_667" x1="1.23607" y1="14.5" x2="29" y2="14.5" gradientUnits="userSpaceOnUse">
<stop stop-color="#AF873A"/>
<stop offset="0.328125" stop-color="#C59C4E"/>
<stop offset="0.489583" stop-color="#E7BB68"/>
<stop offset="1" stop-color="#D4AA5C"/>
</linearGradient>
</defs>
</svg>
