<svg width="63" height="62" viewBox="0 0 63 62" fill="none" xmlns="http://www.w3.org/2000/svg">
<ellipse cx="31.4647" cy="31" rx="31.1036" ry="31" fill="#D6AD64"/>
<ellipse cx="31.4647" cy="31" rx="31.1036" ry="31" fill="url(#paint0_linear_170_1554)"/>
<path d="M24.6921 40.45L16.7908 32.575C16.5842 32.3666 16.3381 32.2011 16.0669 32.0881C15.7956 31.9752 15.5045 31.917 15.2105 31.917C14.9166 31.917 14.6255 31.9752 14.3542 32.0881C14.083 32.2011 13.8369 32.3666 13.6303 32.575C13.4211 32.7809 13.2551 33.0262 13.1418 33.2965C13.0284 33.5669 12.9701 33.857 12.9701 34.15C12.9701 34.443 13.0284 34.7331 13.1418 35.0035C13.2551 35.2738 13.4211 35.5191 13.6303 35.725L23.0893 45.1525C23.9697 46.03 25.392 46.03 26.2724 45.1525L50.2021 21.325C50.4112 21.1191 50.5773 20.8738 50.6906 20.6035C50.8039 20.3331 50.8623 20.043 50.8623 19.75C50.8623 19.457 50.8039 19.1669 50.6906 18.8965C50.5773 18.6262 50.4112 18.3809 50.2021 18.175C49.9955 17.9666 49.7494 17.8011 49.4781 17.6881C49.2069 17.5752 48.9158 17.517 48.6218 17.517C48.3278 17.517 48.0368 17.5752 47.7655 17.6881C47.4942 17.8011 47.2482 17.9666 47.0416 18.175L24.6921 40.45Z" fill="white"/>
<defs>
<linearGradient id="paint0_linear_170_1554" x1="-21.9998" y1="31" x2="95.0002" y2="31" gradientUnits="userSpaceOnUse">
<stop stop-color="#AF873A"/>
<stop offset="0.206809" stop-color="#C59C4E"/>
<stop offset="0.494128" stop-color="#E7BB68"/>
<stop offset="1" stop-color="#D4AA5C"/>
</linearGradient>
</defs>
</svg>
