<svg width="32" height="32" viewBox="0 0 32 32" fill="none" xmlns="http://www.w3.org/2000/svg">
<g id="radix-icons:person">
<path id="Vector" fill-rule="evenodd" clip-rule="evenodd" d="M15.9999 1.86622C14.1349 1.86373 12.3318 2.53535 10.9228 3.75734C9.51382 4.97932 8.59392 6.66933 8.3326 8.51599C8.07128 10.3626 8.48613 12.2415 9.50073 13.8065C10.5153 15.3714 12.0613 16.517 13.8538 17.0321C11.3066 17.3414 9.12208 18.2417 7.47515 19.8652C5.38021 21.9281 4.31995 25.0022 4.31995 29.0129C4.31995 29.2816 4.42671 29.5394 4.61674 29.7294C4.80678 29.9195 5.06453 30.0262 5.33328 30.0262C5.60203 30.0262 5.85978 29.9195 6.04981 29.7294C6.23985 29.5394 6.34661 29.2816 6.34661 29.0129C6.34661 25.3435 7.31301 22.8689 8.89808 21.3073C10.4853 19.7435 12.8575 18.9329 15.9999 18.9329C19.1423 18.9329 21.5146 19.7435 23.1039 21.3073C24.6869 22.871 25.6533 25.3435 25.6533 29.0129C25.6533 29.2816 25.76 29.5394 25.9501 29.7294C26.1401 29.9195 26.3979 30.0262 26.6666 30.0262C26.9354 30.0262 27.1931 29.9195 27.3831 29.7294C27.5732 29.5394 27.6799 29.2816 27.6799 29.0129C27.6799 25.0022 26.6197 21.9302 24.5226 19.8652C22.8799 18.2438 20.6933 17.3414 18.1461 17.0321C19.9326 16.5112 21.4716 15.3639 22.4809 13.8004C23.4902 12.237 23.9022 10.3622 23.6415 8.51964C23.3808 6.67708 22.4647 4.9902 21.0612 3.76821C19.6577 2.54621 17.8609 1.87096 15.9999 1.86622ZM10.2933 9.59955C10.2933 8.08605 10.8945 6.63454 11.9647 5.56433C13.0349 4.49412 14.4864 3.89288 15.9999 3.89288C17.5134 3.89288 18.965 4.49412 20.0352 5.56433C21.1054 6.63454 21.7066 8.08605 21.7066 9.59955C21.7066 11.1131 21.1054 12.5646 20.0352 13.6348C18.965 14.705 17.5134 15.3062 15.9999 15.3062C14.4864 15.3062 13.0349 14.705 11.9647 13.6348C10.8945 12.5646 10.2933 11.1131 10.2933 9.59955Z" fill="#696767"/>
</g>
</svg>
