<svg width="33" height="33" viewBox="0 0 33 33" fill="none" xmlns="http://www.w3.org/2000/svg">
<g id="ph:phone">
<path id="Vector" d="M28.6649 20.4262L22.5921 17.705L22.5754 17.6973C22.2601 17.5624 21.9162 17.5083 21.5748 17.5398C21.2333 17.5713 20.9051 17.6875 20.6199 17.8777C20.5863 17.8999 20.554 17.924 20.5232 17.9499L17.3856 20.6247C15.3979 19.6592 13.3457 17.6225 12.3802 15.6606L15.0588 12.4753C15.0846 12.4431 15.1091 12.4108 15.1323 12.376C15.3185 12.0915 15.4315 11.7654 15.4611 11.4267C15.4908 11.088 15.4363 10.7472 15.3025 10.4347V10.4192L12.5735 4.33615C12.3966 3.92785 12.0924 3.58774 11.7062 3.36656C11.3201 3.14539 10.8728 3.05502 10.4311 3.10896C8.68439 3.33881 7.08106 4.19663 5.92059 5.52221C4.76012 6.84778 4.12185 8.55047 4.12501 10.3122C4.12501 20.5474 12.4524 28.8747 22.6875 28.8747C24.4493 28.8779 26.152 28.2396 27.4775 27.0792C28.8031 25.9187 29.6609 24.3154 29.8908 22.5686C29.9448 22.1271 29.8546 21.6799 29.6337 21.2938C29.4128 20.9077 29.0729 20.6034 28.6649 20.4262ZM22.6875 26.8122C18.3129 26.8075 14.1188 25.0675 11.0255 21.9742C7.93221 18.8809 6.19229 14.6868 6.18751 10.3122C6.18266 9.05346 6.63617 7.83594 7.46334 6.88708C8.29052 5.93822 9.43479 5.32288 10.6825 5.15599C10.682 5.16113 10.682 5.16631 10.6825 5.17146L13.3895 11.2301L10.725 14.4192C10.698 14.4503 10.6734 14.4835 10.6515 14.5184C10.4576 14.8161 10.3438 15.1588 10.3212 15.5134C10.2986 15.868 10.368 16.2224 10.5226 16.5423C11.6905 18.9309 14.0972 21.3195 16.5116 22.4861C16.8338 22.6393 17.1903 22.7063 17.5461 22.6806C17.902 22.6548 18.2451 22.5372 18.5419 22.3392C18.575 22.3169 18.6068 22.2928 18.6373 22.267L21.771 19.5935L27.8296 22.307H27.8438C27.6789 23.5564 27.0645 24.703 26.1155 25.5322C25.1664 26.3614 23.9478 26.8165 22.6875 26.8122Z" fill="#696767"/>
</g>
</svg>
