<svg width="202" height="59" viewBox="0 0 202 59" fill="none" xmlns="http://www.w3.org/2000/svg">
<g clip-path="url(#clip0_478_9)">
<path d="M71.3488 12.39C83.7504 13.066 83.7993 28.7993 71.2998 29.8073C71.1362 29.8197 70.9834 29.895 70.872 30.0182C70.7607 30.1414 70.6993 30.3032 70.7 30.471V31.651C70.7 32.2656 70.3939 32.5729 69.7818 32.5729H67.0272C66.6191 32.5729 66.4151 32.368 66.4151 31.9583V30.5325C66.4151 30.1227 66.2111 29.9015 65.803 29.8687C53.3035 28.8854 52.9974 13.1398 65.7418 12.3285C66.1907 12.2957 66.4151 12.054 66.4151 11.6033V10.1406C66.4151 9.73086 66.6191 9.526 67.0272 9.526H69.7818C70.3939 9.526 70.7 9.83329 70.7 10.4479V11.6893C70.7 12.1318 70.9162 12.3654 71.3488 12.39ZM66.4029 25.3945L66.4273 16.7166C66.4273 16.6188 66.3886 16.525 66.3198 16.4559C66.2509 16.3867 66.1575 16.3479 66.0601 16.3479H65.8152C64.4599 16.344 63.1587 16.8193 62.197 17.6696C61.2354 18.5199 60.6918 19.6758 60.6856 20.8835V21.1785C60.6826 21.7782 60.8123 22.3726 61.0673 22.9278C61.3223 23.4829 61.6977 23.9879 62.1719 24.4137C62.6461 24.8396 63.2098 25.178 63.8308 25.4096C64.4518 25.6412 65.1178 25.7614 65.7907 25.7633H66.0356C66.133 25.7633 66.2264 25.7244 66.2953 25.6553C66.3642 25.5861 66.4029 25.4923 66.4029 25.3945ZM70.6877 16.6675L70.6632 25.4191C70.6632 25.5169 70.7019 25.6107 70.7708 25.6799C70.8397 25.749 70.9331 25.7879 71.0305 25.7879H71.2141C72.5337 25.7916 73.8006 25.3162 74.737 24.4659C75.6734 23.6156 76.2028 22.4599 76.209 21.2523V20.8835C76.2122 20.2838 76.086 19.6893 75.8377 19.1341C75.5895 18.5789 75.2241 18.0739 74.7624 17.6481C74.3007 17.2222 73.7518 16.8838 73.1471 16.6522C72.5425 16.4207 71.8939 16.3006 71.2386 16.2987H71.055C70.9576 16.2987 70.8642 16.3376 70.7953 16.4067C70.7264 16.4759 70.6877 16.5697 70.6877 16.6675Z" fill="white"/>
<path d="M144.657 21.0679C144.657 24.116 143.451 27.0392 141.304 29.1945C139.157 31.3498 136.246 32.5606 133.21 32.5606C130.174 32.5606 127.263 31.3498 125.116 29.1945C122.969 27.0392 121.763 24.116 121.763 21.0679C121.763 18.0198 122.969 15.0966 125.116 12.9413C127.263 10.786 130.174 9.5752 133.21 9.5752C136.246 9.5752 139.157 10.786 141.304 12.9413C143.451 15.0966 144.657 18.0198 144.657 21.0679ZM140.298 21.0433C140.298 19.1623 139.554 17.3584 138.229 16.0283C136.905 14.6983 135.108 13.951 133.234 13.951C131.361 13.951 129.564 14.6983 128.239 16.0283C126.915 17.3584 126.17 19.1623 126.17 21.0433C126.17 22.9243 126.915 24.7283 128.239 26.0583C129.564 27.3884 131.361 28.1356 133.234 28.1356C135.108 28.1356 136.905 27.3884 138.229 26.0583C139.554 24.7283 140.298 22.9243 140.298 21.0433Z" fill="white"/>
<path d="M86.8846 28.3937C86.3704 29.2214 86.0725 30.0941 85.9909 31.0119C85.9712 31.2355 85.8729 31.4448 85.7137 31.6024C85.5545 31.76 85.3446 31.8557 85.1217 31.8723L81.7305 32.1673C81.0368 32.2246 80.8042 31.9255 81.0327 31.27L88.2924 10.5831C88.4475 10.1652 88.7454 9.94804 89.1861 9.93165L92.9323 9.83332C93.5526 9.81693 93.9648 10.0996 94.1688 10.6814L101.441 31.4298C101.612 31.9296 101.433 32.1714 100.902 32.155L97.3029 32.0198C97.1497 32.0132 97.0025 31.9587 96.8818 31.8639C96.761 31.7692 96.6728 31.6388 96.6295 31.4912L95.8583 28.8854C95.7685 28.5576 95.5481 28.3855 95.1972 28.3691L87.6191 28.0004C87.3008 27.9922 87.056 28.1233 86.8846 28.3937ZM88.4516 23.4279C88.432 23.4876 88.427 23.5511 88.4369 23.6131C88.4468 23.6752 88.4714 23.7339 88.5085 23.7845C88.5457 23.835 88.5944 23.8759 88.6505 23.9037C88.7066 23.9315 88.7685 23.9453 88.8311 23.9441L93.5445 23.981C93.607 23.9822 93.6689 23.9683 93.7251 23.9406C93.7812 23.9128 93.8299 23.8719 93.867 23.8213C93.9042 23.7708 93.9288 23.712 93.9387 23.65C93.9486 23.588 93.9435 23.5245 93.924 23.4648L91.6101 16.2619C91.585 16.1823 91.5352 16.1128 91.4681 16.0634C91.401 16.0141 91.3199 15.9875 91.2368 15.9875C91.1536 15.9875 91.0725 16.0141 91.0054 16.0634C90.9383 16.1128 90.8885 16.1823 90.8634 16.2619L88.4516 23.4279Z" fill="white"/>
<path d="M116.462 11.1854C119.637 13.6191 120.086 16.565 117.809 20.0231C117.709 20.1767 117.66 20.358 117.669 20.5411C117.678 20.7242 117.744 20.8999 117.858 21.0433C120.294 24.0547 121.127 27.6193 117.931 30.3112C114.956 32.831 108.578 31.9583 104.501 32.0935C104.405 32.0968 104.308 32.0801 104.218 32.0446C104.127 32.009 104.045 31.9552 103.975 31.8864C103.905 31.8176 103.85 31.7351 103.812 31.644C103.774 31.5529 103.755 31.4549 103.755 31.356V10.7429C103.755 10.5417 103.832 10.3483 103.972 10.2038C104.111 10.0593 104.301 9.97487 104.501 9.96848C107.391 9.84556 114.259 9.48911 116.462 11.1854ZM108.199 14.627V18.4129C108.199 18.5465 108.252 18.6747 108.346 18.7692C108.44 18.8637 108.567 18.9168 108.701 18.9168H112.422C113.036 18.9168 113.624 18.6721 114.058 18.2364C114.492 17.8007 114.736 17.2098 114.736 16.5937V16.4462C114.736 15.8301 114.492 15.2392 114.058 14.8035C113.624 14.3678 113.036 14.1231 112.422 14.1231H108.701C108.567 14.1231 108.44 14.1762 108.346 14.2707C108.252 14.3652 108.199 14.4934 108.199 14.627ZM108.101 23.5016V27.2629C108.099 27.3575 108.116 27.4515 108.151 27.5395C108.186 27.6274 108.238 27.7074 108.304 27.7749C108.37 27.8424 108.449 27.8961 108.536 27.9326C108.623 27.9692 108.716 27.9881 108.811 27.9881H112.581C113.378 27.9886 114.142 27.7354 114.706 27.2839C115.271 26.8323 115.59 26.2193 115.593 25.5789V25.2347C115.595 24.9159 115.518 24.5998 115.368 24.3047C115.217 24.0097 114.995 23.7414 114.716 23.5152C114.436 23.2891 114.103 23.1096 113.737 22.987C113.371 22.8645 112.978 22.8012 112.581 22.801H108.811C108.625 22.801 108.446 22.8744 108.313 23.0054C108.18 23.1365 108.104 23.3147 108.101 23.5016Z" fill="white"/>
<path d="M152.112 25.5175V31.4667C152.112 31.6394 152.042 31.8051 151.919 31.9273C151.795 32.0495 151.626 32.1181 151.451 32.1181L148.048 32.0689C147.999 32.0689 147.952 32.0482 147.918 32.0113C147.883 31.9745 147.864 31.9244 147.864 31.8723L147.521 10.706C147.521 10.3373 147.705 10.1324 148.072 10.0914C152.333 9.68172 155.72 9.78005 158.233 10.3864C165.297 12.095 164.967 22.3831 158.209 24.5833C157.442 24.8373 155.622 24.9398 152.749 24.8906C152.324 24.8824 152.112 25.0914 152.112 25.5175ZM152.112 14.5779V20.3058C152.112 20.4264 152.16 20.5421 152.245 20.6274C152.33 20.7127 152.445 20.7606 152.565 20.7606H155.834C156.691 20.7606 157.513 20.4187 158.119 19.8102C158.725 19.2016 159.066 18.3762 159.066 17.5156V17.3681C159.066 16.5075 158.725 15.6821 158.119 15.0735C157.513 14.465 156.691 14.1231 155.834 14.1231H152.565C152.445 14.1231 152.33 14.171 152.245 14.2563C152.16 14.3416 152.112 14.4573 152.112 14.5779Z" fill="white"/>
<path d="M179.045 19.7527C179.043 19.6763 179.017 19.6026 178.971 19.5418C178.925 19.4809 178.861 19.4359 178.789 19.413C178.716 19.39 178.638 19.3903 178.566 19.4137C178.493 19.4371 178.43 19.4826 178.384 19.5437L170.072 31.4543C169.843 31.7903 169.521 31.9583 169.105 31.9583H166.803C166.395 31.9583 166.191 31.7534 166.191 31.3437V10.9887C166.191 10.5134 166.424 10.2553 166.889 10.2143L169.839 9.91934C170.345 9.87017 170.598 10.1037 170.598 10.62C170.566 14.455 170.561 18.2941 170.586 22.1373C170.586 22.8666 170.81 22.9403 171.259 22.3585C174.051 18.712 176.666 14.9712 179.107 11.1362C179.898 9.89886 181.163 9.58747 182.902 10.2021C183.187 10.3086 183.33 10.5134 183.33 10.8166V31.1348C183.33 31.6182 183.094 31.8764 182.62 31.9091L179.719 32.1181C179.27 32.1509 179.045 31.9419 179.045 31.4912V19.7527Z" fill="white"/>
<path d="M202 10.0546V14.1969L196.773 14.16C196.381 14.16 196.185 14.3567 196.185 14.75V31.3806C196.185 31.8067 195.973 32.028 195.548 32.0444L192.292 32.1304C191.827 32.1386 191.594 31.9092 191.594 31.4421V14.75C191.594 14.3403 191.39 14.1354 190.982 14.1354H186.391C185.983 14.1354 185.779 13.9305 185.779 13.5208V10.7675C185.779 10.2676 186.028 10.0177 186.526 10.0177L202 10.0546Z" fill="white"/>
<path d="M0 0H6.28036C6.18242 3.05653 6.66396 5.74021 7.72497 8.05104C7.93717 8.50174 8.09224 8.48535 8.19018 8.00187C9.0798 3.63424 10.4509 0.966944 12.3036 0H25.2684C25.3908 2.83937 20.6162 3.47854 18.535 3.65062C18.3274 3.66085 18.1298 3.74345 17.9763 3.88419C17.8227 4.02492 17.7229 4.215 17.6939 4.42169C17.6649 4.62839 17.7086 4.83876 17.8174 5.01661C17.9262 5.19445 18.0934 5.32863 18.2902 5.39604C20.9998 6.42035 23.7299 6.37937 26.4804 5.27312C26.6558 5.20173 26.8092 5.08573 26.9253 4.93683C27.0413 4.78793 27.1159 4.61139 27.1415 4.425L27.7413 0H46.6069L46.7293 8.35833C46.7315 8.44889 46.7115 8.53874 46.6711 8.61964C46.6306 8.70054 46.5711 8.76988 46.498 8.82129C46.4248 8.87269 46.3404 8.90451 46.2525 8.91383C46.1646 8.92314 46.0759 8.90965 45.9948 8.87458C31.2304 2.91312 28.8676 21.7685 45.7989 15.9792C45.8816 15.9498 45.9701 15.9407 46.0569 15.9526C46.1438 15.9645 46.2267 15.997 46.2985 16.0475C46.3703 16.098 46.4291 16.165 46.47 16.2429C46.5109 16.3208 46.5326 16.4074 46.5335 16.4954L46.6926 27.14C46.6962 27.2566 46.6655 27.3712 46.6044 27.4701C46.5433 27.569 46.4543 27.6479 46.3481 27.6973C46.2419 27.7467 46.1232 27.7645 46.0062 27.7485C45.8892 27.7324 45.7789 27.6833 45.6887 27.6071C44.0319 26.1485 42.1303 25.1365 39.9838 24.571C39.8244 24.5236 39.6543 24.534 39.5028 24.6005C39.3514 24.6671 39.228 24.7856 39.154 24.9356C39.0801 25.0856 39.0601 25.2578 39.0976 25.4223C39.1351 25.5869 39.2277 25.7336 39.3594 25.8371C43.4402 29.0493 44.8685 33.2408 43.6442 38.4115C43.4892 39.067 43.2198 39.1162 42.8362 38.559C34.2665 26.2181 17.8127 27.939 7.61479 17.6262C3.3381 13.3078 0.799838 7.75194 0 0.95875V0Z" fill="white"/>
<path d="M0 18.9292V17.4542C0.106101 17.4214 0.19996 17.36 0.281576 17.2698C0.404 17.1305 0.518263 17.1387 0.624364 17.2944C6.20691 25.5544 16.9558 29.7582 26.0396 33.7529C32.2221 36.4694 39.4328 41.5582 35.5153 49.4617C35.0827 50.3303 34.5563 50.3877 33.936 49.6338C23.9462 37.4036 3.69721 39.8742 0 18.9292Z" fill="white"/>
<path d="M23.4687 59C23.4524 58.9918 23.432 58.9918 23.4075 59C11.9159 53.9195 4.36642 45.5161 0.758984 33.7898C0.727089 33.6827 0.734541 33.5676 0.779985 33.4655C0.825429 33.3634 0.905848 33.281 1.00663 33.2334C1.10741 33.1858 1.22186 33.1761 1.32918 33.206C1.4365 33.2359 1.52957 33.3035 1.59147 33.3965C8.58189 43.7092 21.1181 43.955 29.7735 53.5917C30.0673 53.9113 30.0388 54.2022 29.6878 54.4644L23.4687 59Z" fill="white"/>
<path d="M151.12 39.0998C150.386 39.2637 149.639 39.3252 148.88 39.2842C148.801 39.2819 148.725 39.2531 148.664 39.2023C148.603 39.1515 148.56 39.0816 148.543 39.0039C148.526 38.9261 148.536 38.8449 148.57 38.7732C148.605 38.7014 148.662 38.6434 148.733 38.6082C149.835 38.0182 150.925 38.01 152.002 38.5836C152.043 38.607 152.079 38.6403 152.105 38.6804C152.13 38.7204 152.146 38.766 152.15 38.8127C152.153 38.8593 152.145 38.9057 152.126 38.9473C152.106 38.9889 152.076 39.0245 152.039 39.0507C151.622 39.3457 151.316 39.362 151.12 39.0998Z" fill="white"/>
<path d="M57.5517 44.3607C57.2008 44.8687 57.1355 45.4259 57.3558 46.0323C57.3849 46.1115 57.3931 46.197 57.3797 46.2803C57.3663 46.3636 57.3318 46.4416 57.2796 46.5065C57.2274 46.5714 57.1594 46.6208 57.0825 46.6498C57.0056 46.6788 56.9225 46.6863 56.8417 46.6715C55.9602 46.5363 56.3275 41.5336 56.3642 40.6854C56.3805 40.3577 56.5478 40.2348 56.8661 40.3167L57.2334 40.4027C57.4375 40.4601 57.5068 40.5871 57.4415 40.7838C57.1804 41.5786 57.262 42.2465 57.6864 42.7873C57.7466 42.862 57.8249 42.9202 57.9137 42.9561C58.0025 42.992 58.0986 43.0043 58.1925 42.9919C58.2865 42.9795 58.3751 42.9428 58.4495 42.8853C58.5239 42.8279 58.5815 42.7517 58.6168 42.6644C60.649 37.7109 66.5499 40.3659 65.24 44.6802C64.1871 48.1219 59.9267 47.3107 58.4209 44.4221C58.1598 43.9304 57.87 43.91 57.5517 44.3607ZM64.3707 43.4879C64.3707 42.8392 64.1141 42.2171 63.6572 41.7583C63.2003 41.2996 62.5806 41.0419 61.9345 41.0419C61.2884 41.0419 60.6687 41.2996 60.2118 41.7583C59.7549 42.2171 59.4983 42.8392 59.4983 43.4879C59.4983 44.1367 59.7549 44.7588 60.2118 45.2176C60.6687 45.6763 61.2884 45.934 61.9345 45.934C62.5806 45.934 63.2003 45.6763 63.6572 45.2176C64.1141 44.7588 64.3707 44.1367 64.3707 43.4879Z" fill="white"/>
<path d="M69.2064 47.1385L69.1452 49.1052C69.1452 49.3756 69.0105 49.4822 68.7412 49.4248C67.9087 49.265 68.2637 42.1973 68.3127 41.1894C68.329 40.7551 68.5494 40.4888 68.9738 40.3904C78.2168 38.2394 75.9152 49.1175 70.1123 46.5608C70.0152 46.5187 69.9092 46.501 69.8037 46.5094C69.6982 46.5178 69.5964 46.552 69.507 46.6089C69.4177 46.6659 69.3436 46.7439 69.2912 46.8363C69.2388 46.9286 69.2097 47.0323 69.2064 47.1385ZM74.1278 43.5002C74.1278 42.845 73.8686 42.2166 73.4071 41.7532C72.9456 41.2899 72.3197 41.0296 71.6671 41.0296C71.0145 41.0296 70.3886 41.2899 69.9271 41.7532C69.4656 42.2166 69.2064 42.845 69.2064 43.5002C69.2064 44.1555 69.4656 44.7839 69.9271 45.2472C70.3886 45.7105 71.0145 45.9708 71.6671 45.9708C72.3197 45.9708 72.9456 45.7105 73.4071 45.2472C73.8686 44.7839 74.1278 44.1555 74.1278 43.5002Z" fill="white"/>
<path d="M114.528 45.7496C115.711 46.0282 116.935 45.9421 118.201 45.4914C118.304 45.4589 118.416 45.4639 118.516 45.5053C118.617 45.5468 118.699 45.6222 118.75 45.7184C118.801 45.8147 118.817 45.9259 118.795 46.0325C118.773 46.1392 118.714 46.2348 118.629 46.3027C112.593 50.6785 110.059 38.8294 116.805 39.9971C118.103 40.2183 118.964 41.091 119.388 42.6152C119.472 42.9065 119.467 43.2166 119.374 43.505C119.28 43.7934 119.102 44.0469 118.863 44.2325C118.624 44.4181 118.335 44.5272 118.034 44.5457C117.732 44.5641 117.432 44.4911 117.172 44.336C116.03 43.6641 115.038 43.7378 114.197 44.5573C114.108 44.6476 114.044 44.7603 114.011 44.8834C113.979 45.0066 113.98 45.1358 114.014 45.2575C114.047 45.3793 114.113 45.4892 114.203 45.5757C114.294 45.6622 114.406 45.7223 114.528 45.7496ZM118.152 41.8777C116.633 40.7878 115.23 40.8657 113.94 42.1112C113.851 42.1972 113.79 42.3081 113.765 42.4295C113.74 42.5508 113.752 42.677 113.8 42.7913C113.848 42.9056 113.929 43.0028 114.032 43.07C114.136 43.1373 114.257 43.1716 114.381 43.1683L117.797 43.07C117.935 43.0686 118.069 43.0227 118.18 42.939C118.291 42.8554 118.372 42.7384 118.412 42.6052C118.451 42.4719 118.447 42.3294 118.401 42.1985C118.354 42.0676 118.267 41.9552 118.152 41.8777Z" fill="white"/>
<path d="M122.951 42.689C122.228 45.2702 125.081 46.9788 127.235 45.1227C127.513 44.8851 127.737 44.9301 127.909 45.2579C128.68 46.696 123.33 48.294 121.861 44.4958C120.233 40.2921 127.578 38.5221 127.909 41.4598C127.958 41.9351 127.774 42.058 127.358 41.8285L126.293 41.2631C125.985 41.0966 125.643 41.0016 125.294 40.9852C124.944 40.9688 124.596 41.0315 124.275 41.1685C123.954 41.3056 123.668 41.5135 123.438 41.7767C123.209 42.04 123.042 42.3518 122.951 42.689Z" fill="white"/>
<path d="M133.271 41.8162L134.899 40.1815C134.941 40.1382 134.993 40.1063 135.05 40.0886C135.107 40.0709 135.168 40.0681 135.227 40.0804C135.285 40.0926 135.34 40.1196 135.386 40.1588C135.431 40.1979 135.466 40.248 135.487 40.3044C135.528 40.4109 135.568 40.5174 135.609 40.624C135.617 40.6567 135.609 40.6895 135.585 40.7223C134.793 41.5172 134.001 42.312 133.21 43.1069C133.144 43.1708 133.094 43.2495 133.065 43.3367C133.035 43.4239 133.027 43.5172 133.04 43.6091C133.053 43.7011 133.087 43.7891 133.14 43.8662C133.193 43.9433 133.263 44.0074 133.344 44.0533C134.275 44.586 135.042 45.2866 135.646 46.1552C135.696 46.2224 135.722 46.304 135.721 46.3876C135.719 46.4712 135.691 46.5521 135.639 46.6178C135.588 46.6834 135.516 46.7303 135.436 46.7511C135.355 46.7719 135.27 46.7655 135.193 46.7329C134.295 46.3642 133.651 45.725 133.259 44.8154C133.221 44.7259 133.161 44.647 133.086 44.5855C133.011 44.5241 132.922 44.4819 132.827 44.4625C132.731 44.4432 132.633 44.4473 132.54 44.4745C132.447 44.5017 132.362 44.5512 132.292 44.6187C131.884 45.0203 131.765 45.5283 131.937 46.1429C131.955 46.2052 131.959 46.2707 131.95 46.335C131.941 46.3993 131.919 46.4609 131.884 46.5156C131.849 46.5703 131.803 46.6169 131.749 46.6523C131.694 46.6877 131.633 46.711 131.569 46.7206C130.663 46.8558 131.08 41.7671 131.104 40.9927C131.12 39.911 131.357 39.8578 131.814 40.8329L132.181 41.6196C132.451 42.2096 132.814 42.2751 133.271 41.8162Z" fill="white"/>
<path d="M172.704 46.1798L175.214 45.43C175.323 45.3973 175.44 45.4072 175.541 45.4579C175.642 45.5086 175.72 45.5964 175.76 45.7041C175.799 45.8118 175.798 45.9316 175.756 46.0401C175.714 46.1485 175.634 46.2378 175.532 46.2905C167.121 50.3221 168.75 36.8505 174.663 40.3536C175.862 41.0583 176.266 42.226 175.875 43.8567C175.785 44.2009 175.565 44.3566 175.214 44.3238L171.798 43.9673C171.382 43.9182 171.157 44.1066 171.125 44.5327L171.1 44.8769C171.084 45.0804 171.117 45.2848 171.197 45.4724C171.277 45.6601 171.401 45.8253 171.559 45.9537C171.717 46.0821 171.904 46.1698 172.104 46.2092C172.303 46.2486 172.509 46.2385 172.704 46.1798ZM174.785 41.6565C173.438 40.8452 172.177 40.9559 171.002 41.9884C170.92 42.063 170.862 42.1603 170.835 42.2681C170.807 42.3758 170.812 42.4892 170.849 42.5942C170.885 42.6991 170.952 42.7909 171.04 42.8581C171.128 42.9252 171.234 42.9647 171.345 42.9717L174.332 43.1438C174.511 43.1555 174.689 43.1062 174.836 43.0039C174.984 42.9016 175.093 42.7523 175.145 42.5802C175.197 42.408 175.19 42.2231 175.125 42.0555C175.06 41.8878 174.94 41.7472 174.785 41.6565Z" fill="white"/>
<path d="M202 42.5168V44.8645C200.596 46.9049 198.939 47.4663 197.03 46.5485C196.887 46.4806 196.728 46.4541 196.571 46.4721C196.415 46.4902 196.266 46.5519 196.142 46.6505C196.019 46.749 195.925 46.8804 195.872 47.0296C195.819 47.1789 195.809 47.3401 195.842 47.4949C195.997 48.2161 195.899 48.888 195.548 49.5108C195.515 49.5749 195.461 49.6256 195.395 49.6547C195.329 49.6838 195.255 49.6896 195.185 49.671C195.115 49.6524 195.054 49.6107 195.011 49.5525C194.968 49.4944 194.946 49.4233 194.948 49.351C194.957 46.5649 194.961 43.787 194.961 41.0172C194.961 40.6157 195.161 40.4395 195.561 40.4887L196.087 40.5624C196.319 40.5947 196.561 40.5607 196.785 40.4641C199.111 39.4398 200.849 40.124 202 42.5168ZM200.91 43.5124C200.91 42.8572 200.651 42.2288 200.19 41.7654C199.728 41.3021 199.102 41.0418 198.45 41.0418C197.797 41.0418 197.171 41.3021 196.71 41.7654C196.248 42.2288 195.989 42.8572 195.989 43.5124C195.989 44.1677 196.248 44.7961 196.71 45.2594C197.171 45.7228 197.797 45.9831 198.45 45.9831C199.102 45.9831 199.728 45.7228 200.19 45.2594C200.651 44.7961 200.91 44.1677 200.91 43.5124Z" fill="white"/>
<path d="M81.8283 43.2175C80.6775 44.1517 79.8001 45.2907 79.1962 46.6346C79.1374 46.7648 79.0363 46.8702 78.9095 46.9334C78.7826 46.9965 78.6375 47.0138 78.4981 46.9824C78.3586 46.951 78.233 46.8727 78.1418 46.7603C78.0507 46.648 77.9994 46.5083 77.9964 46.3642L77.9719 40.6486C77.9732 40.5481 78.0067 40.4507 78.0675 40.3709C78.1283 40.2911 78.2131 40.2331 78.3093 40.2055C78.4055 40.1779 78.508 40.1822 78.6016 40.2177C78.6952 40.2532 78.7749 40.3181 78.8289 40.4027L79.0003 40.6609C79.1554 40.8985 79.1839 41.1525 79.086 41.4229C78.8656 42.0457 78.8738 42.6644 79.1105 43.279C79.1515 43.3924 79.2224 43.4923 79.3158 43.5683C79.4091 43.6443 79.5216 43.6937 79.6415 43.7112C79.7613 43.7288 79.8843 43.7139 79.9976 43.6682C80.1108 43.6224 80.2103 43.5475 80.2857 43.4511L82.5261 40.5134C82.594 40.4239 82.688 40.3579 82.795 40.3245C82.9019 40.2912 83.0166 40.2921 83.123 40.3273C83.2295 40.3625 83.3223 40.4301 83.3887 40.5207C83.455 40.6113 83.4916 40.7205 83.4933 40.8329L83.5545 46.4134C83.5525 46.5148 83.5168 46.6127 83.453 46.6915C83.3892 46.7702 83.3011 46.8253 83.2025 46.8479C83.104 46.8705 83.0007 46.8594 82.9092 46.8163C82.8177 46.7732 82.7432 46.7006 82.6975 46.61C82.2731 45.7004 82.2527 44.7704 82.6363 43.8198C82.6771 43.7111 82.6815 43.5914 82.649 43.4793C82.6164 43.3672 82.5487 43.2691 82.4564 43.2003C82.3641 43.1314 82.2524 43.0958 82.1387 43.0989C82.0251 43.1021 81.9159 43.1438 81.8283 43.2175Z" fill="white"/>
<path d="M90.6184 46.7083C89.8023 46.7083 88.9861 46.7083 88.1699 46.7083C87.9432 46.7075 87.7223 46.7786 87.5396 46.9113C87.3568 47.0439 87.2217 47.2312 87.1538 47.4458L86.8722 48.2816C86.8473 48.3717 86.793 48.4507 86.718 48.5061C86.643 48.5615 86.5517 48.5901 86.4586 48.5872C86.3656 48.5844 86.2762 48.5503 86.2047 48.4905C86.1332 48.4306 86.0837 48.3484 86.0642 48.257C85.8112 47.2491 86.0112 46.4256 86.6641 45.7864C86.909 45.5406 87.0804 45.2538 87.1783 44.926C87.5701 43.664 87.6721 42.3734 87.4844 41.0541C87.4702 40.9542 87.4778 40.8524 87.5065 40.7557C87.5352 40.659 87.5843 40.5697 87.6506 40.4938C87.7169 40.4179 87.7987 40.3573 87.8904 40.3162C87.9822 40.275 88.0817 40.2542 88.1822 40.2552H91.6713C92.1773 40.2552 92.4303 40.5133 92.4303 41.0295V44.8154C92.4303 45.1513 92.5405 45.4422 92.7608 45.6881C93.3893 46.401 93.5525 47.1959 93.2505 48.0727C93.2097 48.1766 93.1363 48.2788 93.0433 48.3613C92.9503 48.4438 92.8438 48.5011 92.7426 48.5232C92.6414 48.5453 92.552 48.5307 92.4904 48.482C92.4288 48.4333 92.3988 48.3536 92.4058 48.257C92.4548 47.7408 92.2222 47.327 91.708 47.0156C91.3734 46.8107 91.0102 46.7083 90.6184 46.7083ZM91.4509 42.7995C91.6468 41.9801 91.2224 41.3737 90.1777 40.9804C89.992 40.9099 89.7923 40.8849 89.595 40.9075C89.3978 40.93 89.2088 40.9994 89.0436 41.11C88.8784 41.2205 88.7419 41.369 88.6453 41.5432C88.5487 41.7173 88.4949 41.912 88.4882 42.1112L88.4025 44.3975C88.3922 44.6684 88.4597 44.9367 88.5971 45.1702C88.7344 45.4037 88.9358 45.5926 89.1771 45.7144C89.4184 45.8362 89.6895 45.8858 89.9581 45.8571C90.2267 45.8285 90.4814 45.7229 90.6919 45.5529C91.3366 45.0366 91.6223 44.4958 91.5488 43.9304C91.4591 43.2912 91.4264 42.9143 91.4509 42.7995Z" fill="white"/>
<path d="M99.5921 43.1192L96.7518 46.6961C96.6827 46.7873 96.5865 46.8541 96.4771 46.8869C96.3677 46.9197 96.2508 46.9167 96.1431 46.8784C96.0355 46.8401 95.9428 46.7685 95.8784 46.6738C95.814 46.5792 95.7811 46.4665 95.7847 46.3519L95.8459 40.7223C95.8472 40.6261 95.8767 40.5324 95.9306 40.4528C95.9845 40.3732 96.0605 40.3112 96.1491 40.2746C96.2377 40.2379 96.3351 40.2282 96.4292 40.2466C96.5233 40.265 96.6099 40.3108 96.6784 40.3781L96.9355 40.6363C97.003 40.7016 97.0487 40.7863 97.0662 40.8788C97.0838 40.9712 97.0723 41.0669 97.0334 41.1525C96.6417 41.9965 96.4499 42.8774 96.458 43.7952C96.4587 43.9222 96.4986 44.0458 96.5722 44.1491C96.6457 44.2524 96.7494 44.3303 96.8688 44.3721C96.9882 44.4138 97.1176 44.4174 97.2392 44.3824C97.3607 44.3473 97.4685 44.2753 97.5476 44.1763L100.363 40.6731C100.44 40.5781 100.544 40.5088 100.661 40.4746C100.778 40.4403 100.903 40.4427 101.019 40.4815C101.134 40.5202 101.236 40.5934 101.309 40.6913C101.382 40.7892 101.424 40.9073 101.428 41.0296L101.588 46.1184C101.593 46.2557 101.548 46.3901 101.461 46.4966C101.375 46.603 101.252 46.6742 101.117 46.6968C100.982 46.7194 100.844 46.6918 100.728 46.6193C100.611 46.5468 100.525 46.4343 100.486 46.3027C100.265 45.557 100.245 44.6679 100.425 43.6354C100.465 43.3896 100.367 43.2257 100.131 43.1438C100.033 43.1028 99.9308 43.07 99.8247 43.0454C99.7267 43.0127 99.6492 43.0372 99.5921 43.1192Z" fill="white"/>
<path d="M108.149 43.6109C108.957 42.9963 109.227 42.1522 108.957 41.0788C108.932 40.9771 108.931 40.8705 108.956 40.7687C108.981 40.6669 109.03 40.5732 109.1 40.4961C109.169 40.419 109.256 40.3611 109.353 40.3276C109.451 40.2941 109.554 40.2861 109.655 40.3044C110.329 40.4027 110.341 46.5977 109.557 46.6838C109.198 46.7165 109.011 46.5527 108.994 46.1921L108.945 45.1719C108.938 45.0698 108.91 44.9703 108.862 44.8801C108.814 44.79 108.748 44.7114 108.668 44.6496C108.588 44.5878 108.496 44.5442 108.398 44.522C108.3 44.4997 108.198 44.4992 108.101 44.5204C105.321 45.1104 103.608 43.3527 104.452 40.5011C104.526 40.2552 104.681 40.1692 104.917 40.2429C105.04 40.2757 105.162 40.3126 105.285 40.3536C105.432 40.3945 105.489 40.4888 105.456 40.6363C105.138 42.1113 105.595 43.1479 106.827 43.7461C107.036 43.8496 107.27 43.8918 107.504 43.8679C107.738 43.844 107.961 43.755 108.149 43.6109Z" fill="white"/>
<path d="M142.22 43.3772L139.772 46.4747C139.692 46.5764 139.582 46.6506 139.459 46.6872C139.335 46.7238 139.203 46.7211 139.081 46.6793C138.959 46.6375 138.852 46.5588 138.777 46.4539C138.701 46.3491 138.659 46.2232 138.658 46.0937L138.633 40.8697C138.633 40.6157 138.752 40.4436 138.988 40.3535C139.086 40.3125 139.188 40.2757 139.294 40.2429C139.338 40.2276 139.385 40.2239 139.431 40.2321C139.476 40.2403 139.519 40.2602 139.555 40.2899C139.59 40.3196 139.618 40.358 139.634 40.4014C139.651 40.4449 139.656 40.4919 139.649 40.5379L139.258 43.365C139.237 43.5225 139.267 43.6827 139.344 43.8215C139.421 43.9604 139.541 44.0705 139.686 44.1354C139.83 44.2004 139.992 44.2167 140.146 44.1819C140.301 44.1472 140.44 44.0633 140.543 43.9427L143.432 40.501C143.808 40.0585 144.053 40.12 144.167 40.6854C144.771 43.7419 144.53 46.6263 143.445 49.3387C143.412 49.4125 143.396 49.4084 143.396 49.3264C143.33 47.4499 143.265 45.5734 143.2 43.6968C143.159 42.7053 142.832 42.5988 142.22 43.3772Z" fill="white"/>
<path d="M149.088 43.8567C150.304 42.9471 151.267 41.8203 151.978 40.4764C152.05 40.3549 152.164 40.2631 152.298 40.2172C152.431 40.1714 152.577 40.1744 152.709 40.2259C152.841 40.2773 152.95 40.3738 153.018 40.4984C153.086 40.623 153.107 40.7675 153.079 40.9067C152.712 42.3448 153.606 46.0814 152.859 46.6346C152.377 46.9869 152.133 46.864 152.124 46.2658L152.088 43.6231C152.085 43.4982 152.044 43.3777 151.97 43.2781C151.895 43.1785 151.791 43.1048 151.672 43.0671C151.552 43.0294 151.423 43.0295 151.303 43.0674C151.182 43.1053 151.076 43.1792 150.998 43.2789L148.733 46.2781C148.651 46.3912 148.536 46.4746 148.403 46.5167C148.271 46.5587 148.128 46.5571 147.996 46.5123C147.863 46.4674 147.747 46.3814 147.664 46.2666C147.581 46.1518 147.535 46.0139 147.534 45.8725L147.509 40.8698C147.509 40.6158 147.627 40.4437 147.864 40.3535C147.978 40.3126 148.093 40.2716 148.207 40.2306C148.254 40.2157 148.304 40.213 148.352 40.2227C148.401 40.2324 148.446 40.2541 148.484 40.286C148.522 40.3178 148.551 40.3587 148.569 40.4049C148.587 40.4511 148.593 40.5011 148.586 40.5502L148.293 43.4019C148.211 44.1721 148.476 44.3237 149.088 43.8567Z" fill="white"/>
<path d="M162.947 45.8479L165.028 45.6144C165.518 45.5652 165.689 45.303 165.542 44.8277C165.061 43.3036 165.02 41.9884 165.42 40.8821C165.47 40.7424 165.57 40.6254 165.701 40.5539C165.832 40.4823 165.984 40.4614 166.128 40.4952C166.272 40.5289 166.397 40.615 166.479 40.7365C166.56 40.858 166.593 41.0064 166.57 41.1525C166.358 42.816 166.415 44.2254 166.742 45.3809C166.913 45.9709 167.929 47.3107 167.672 48.2325C167.653 48.3087 167.61 48.376 167.549 48.4248C167.489 48.4736 167.414 48.5014 167.335 48.5041C167.256 48.5068 167.177 48.4844 167.11 48.44C167.043 48.3956 166.992 48.3316 166.962 48.2571C166.415 46.7166 165.309 46.229 163.645 46.7944C163.197 46.944 162.71 46.9197 162.279 46.7263C161.848 46.5329 161.506 46.1844 161.318 45.7496C160.568 43.9878 160.653 41.931 161.576 39.5792C161.612 39.5 161.676 39.4365 161.755 39.4C161.834 39.3636 161.924 39.3566 162.008 39.3802C162.091 39.4038 162.164 39.4566 162.213 39.529C162.261 39.6015 162.283 39.689 162.273 39.7759C161.955 41.5377 161.849 43.2831 161.955 45.0121C161.963 45.1335 161.995 45.252 162.049 45.3605C162.104 45.469 162.18 45.5653 162.272 45.6435C162.365 45.7217 162.473 45.7801 162.589 45.8152C162.705 45.8504 162.826 45.8615 162.947 45.8479Z" fill="white"/>
<path d="M180.686 43.2913L182.253 43.3405C182.431 43.3443 182.607 43.3126 182.771 43.2471C182.935 43.1816 183.084 43.0838 183.208 42.9594C183.82 42.3448 184.065 41.6483 183.942 40.8698C183.929 40.7786 183.936 40.6798 183.963 40.5871C183.99 40.4944 184.036 40.4126 184.094 40.353C184.152 40.2935 184.219 40.2591 184.287 40.2548C184.354 40.2505 184.417 40.2764 184.469 40.329C184.567 40.4273 184.669 40.5216 184.775 40.6117C184.914 40.7264 184.958 40.8739 184.91 41.0542C184.477 42.7341 184.452 44.4139 184.836 46.0938C184.863 46.2263 184.841 46.3668 184.776 46.4889C184.711 46.611 184.607 46.706 184.483 46.756C184.36 46.806 184.225 46.8075 184.105 46.7602C183.985 46.7129 183.888 46.6201 183.832 46.4994C183.579 45.9504 183.53 45.3645 183.685 44.7417C183.71 44.6473 183.711 44.5484 183.688 44.4535C183.665 44.3585 183.619 44.2704 183.554 44.1967C183.489 44.1229 183.407 44.0658 183.315 44.0301C183.222 43.9944 183.123 43.9813 183.024 43.9919L180.6 44.25C180.484 44.2645 180.373 44.3043 180.275 44.3666C180.176 44.429 180.092 44.5124 180.029 44.6109C179.966 44.7094 179.925 44.8206 179.91 44.9367C179.894 45.0527 179.904 45.1708 179.939 45.2825C180.135 45.8889 180.045 46.3642 179.67 46.7084C179.254 47.0689 179.045 46.9747 179.045 46.4257V40.3167C179.046 40.2446 179.07 40.1745 179.113 40.1172C179.157 40.0598 179.218 40.0183 179.287 39.9989C179.356 39.9794 179.43 39.9831 179.496 40.0094C179.563 40.0357 179.62 40.0832 179.658 40.1446C180.041 40.792 180.131 41.509 179.927 42.2957C179.897 42.4126 179.894 42.5347 179.919 42.6529C179.943 42.7711 179.993 42.8822 180.066 42.978C180.139 43.0738 180.233 43.1518 180.34 43.206C180.448 43.2603 180.566 43.2894 180.686 43.2913Z" fill="white"/>
<path d="M187.97 40.3904C189.456 39.9889 190.884 40.0094 192.255 40.4519C192.663 40.5912 192.663 40.7305 192.255 40.8698L191.031 41.3246C190.837 41.3934 190.669 41.5202 190.551 41.6876C190.432 41.855 190.369 42.0546 190.37 42.2587V46.229C190.368 46.3138 190.346 46.397 190.304 46.4707C190.262 46.5443 190.203 46.6058 190.131 46.6491C190.06 46.6924 189.979 46.7161 189.896 46.7179C189.813 46.7196 189.732 46.6994 189.66 46.6592C188.803 46.2167 189.182 43.2052 189.329 42.3817C189.411 41.9146 189.231 41.5991 188.791 41.4352L187.946 41.1279C187.195 40.8493 187.203 40.6035 187.97 40.3904Z" fill="white"/>
</g>
<defs>
<clipPath id="clip0_478_9">
<rect width="202" height="59" fill="white"/>
</clipPath>
</defs>
</svg>
