<svg width="47" height="59" viewBox="0 0 47 59" fill="none" xmlns="http://www.w3.org/2000/svg">
<path d="M0 0H6.28036C6.18242 3.05653 6.66396 5.74021 7.72497 8.05104C7.93717 8.50174 8.09224 8.48535 8.19018 8.00187C9.0798 3.63424 10.4509 0.966944 12.3036 0H25.2684C25.3908 2.83937 20.6162 3.47854 18.535 3.65062C18.3274 3.66085 18.1298 3.74345 17.9763 3.88419C17.8227 4.02492 17.7229 4.215 17.6939 4.42169C17.6649 4.62839 17.7086 4.83876 17.8174 5.01661C17.9262 5.19445 18.0934 5.32863 18.2902 5.39604C20.9998 6.42035 23.7299 6.37937 26.4804 5.27312C26.6558 5.20173 26.8092 5.08573 26.9253 4.93683C27.0413 4.78793 27.1159 4.61139 27.1415 4.425L27.7413 0H46.6069L46.7293 8.35833C46.7315 8.44889 46.7115 8.53874 46.6711 8.61964C46.6306 8.70054 46.5711 8.76988 46.498 8.82129C46.4248 8.87269 46.3404 8.90451 46.2525 8.91383C46.1646 8.92314 46.0759 8.90965 45.9948 8.87458C31.2304 2.91312 28.8676 21.7685 45.7989 15.9792C45.8816 15.9498 45.9701 15.9407 46.0569 15.9526C46.1438 15.9645 46.2267 15.997 46.2985 16.0475C46.3703 16.098 46.4291 16.165 46.47 16.2429C46.5109 16.3208 46.5326 16.4074 46.5335 16.4954L46.6926 27.14C46.6962 27.2566 46.6655 27.3712 46.6044 27.4701C46.5433 27.569 46.4543 27.6479 46.3481 27.6973C46.2419 27.7467 46.1232 27.7645 46.0062 27.7485C45.8892 27.7324 45.7789 27.6833 45.6887 27.6071C44.0319 26.1485 42.1303 25.1365 39.9838 24.571C39.8244 24.5236 39.6543 24.534 39.5028 24.6005C39.3514 24.6671 39.228 24.7856 39.154 24.9356C39.0801 25.0856 39.0601 25.2578 39.0976 25.4223C39.1351 25.5869 39.2277 25.7336 39.3594 25.8371C43.4402 29.0493 44.8685 33.2408 43.6442 38.4115C43.4892 39.067 43.2198 39.1162 42.8362 38.559C34.2665 26.2181 17.8127 27.939 7.61479 17.6262C3.3381 13.3078 0.799838 7.75194 0 0.95875V0Z" fill="#CBA55A"/>
<path d="M0 18.9292V17.4542C0.106101 17.4214 0.19996 17.36 0.281576 17.2698C0.404 17.1305 0.518263 17.1387 0.624364 17.2944C6.20691 25.5544 16.9558 29.7582 26.0396 33.7529C32.2221 36.4694 39.4328 41.5582 35.5153 49.4617C35.0827 50.3303 34.5563 50.3877 33.936 49.6338C23.9462 37.4036 3.69721 39.8742 0 18.9292Z" fill="#CBA55A"/>
<path d="M23.4687 59C23.4524 58.9918 23.432 58.9918 23.4075 59C11.9159 53.9195 4.36642 45.5161 0.758984 33.7898C0.727089 33.6827 0.734541 33.5676 0.779985 33.4655C0.825429 33.3634 0.905848 33.281 1.00663 33.2334C1.10741 33.1858 1.22186 33.1761 1.32918 33.206C1.4365 33.2359 1.52957 33.3035 1.59147 33.3965C8.58189 43.7092 21.1181 43.955 29.7735 53.5917C30.0673 53.9113 30.0388 54.2022 29.6878 54.4644L23.4687 59Z" fill="#CBA55A"/>
</svg>
