<svg width="54" height="56" viewBox="0 0 54 56" fill="none" xmlns="http://www.w3.org/2000/svg">
<g id="Frame 81">
<g id="Group 467">
<g id="Group 465">
<path id="Vector 2" d="M30.5167 36.7996L36.3508 30.9655" stroke="#CBA55A" stroke-width="2"/>
<path id="Vector 3" d="M33.6582 39.0435L39.4923 33.2094" stroke="#CBA55A" stroke-width="2"/>
<path id="Vector 1" d="M40.8413 47.7084C39.6479 47.2506 21.99 26.4777 21.99 26.4777L24.2339 24.2339L26.4777 21.99L46.7328 40.1234C46.7328 40.1234 49.8141 43.7697 46.682 46.8549C43.98 49.5163 42.0346 48.1662 40.8413 47.7084Z" stroke="#CBA55A" stroke-width="2"/>
<rect id="Rectangle 34" x="6.79941" y="18.1305" width="16.1692" height="12.0944" transform="rotate(-44.4897 6.79941 18.1305)" stroke="#CBA55A" stroke-width="2"/>
<g id="Rectangle 35">
<rect x="4.63474" y="17.5702" width="15.9021" height="4.56504" rx="2.28252" transform="rotate(44.8674 4.63474 17.5702)" stroke="#CBA55A" stroke-width="2"/>
<rect x="4.63474" y="17.5702" width="15.9021" height="4.56504" rx="2.28252" transform="rotate(44.8674 4.63474 17.5702)" stroke="#CBA55A" stroke-width="2"/>
</g>
<g id="Rectangle 36">
<rect x="20.7907" y="1.41421" width="15.9021" height="4.56504" rx="2.28252" transform="rotate(44.8674 20.7907 1.41421)" stroke="#CBA55A" stroke-width="2"/>
<rect x="20.7907" y="1.41421" width="15.9021" height="4.56504" rx="2.28252" transform="rotate(44.8674 20.7907 1.41421)" stroke="#CBA55A" stroke-width="2"/>
</g>
<rect id="Rectangle 37" x="17.8732" y="25.7412" width="11.5657" height="2.59021" rx="1.2951" transform="rotate(-44.49 17.8732 25.7412)" stroke="#CBA55A"/>
</g>
<g id="Group 466">
<path id="Line 5" d="M13.7262 16.156L18.214 11.6682" stroke="#CBA55A" stroke-width="2" stroke-linecap="round"/>
<circle id="Ellipse 2" cx="11.6682" cy="18.5857" r="0.897552" fill="#CBA55A"/>
<rect id="Rectangle 38" x="3.69263" y="39.3318" width="20.4388" height="4.28286" rx="2.14143" stroke="#CBA55A" stroke-width="2"/>
<rect id="Rectangle 39" x="1" y="44.7172" width="25.8241" height="4.28286" rx="2.14143" stroke="#CBA55A" stroke-width="2"/>
</g>
</g>
</g>
</svg>
