<svg width="56" height="56" viewBox="0 0 56 56" fill="none" xmlns="http://www.w3.org/2000/svg">
<circle cx="28" cy="28" r="28" fill="#D9D9D9"/>
<circle cx="28" cy="28" r="28" fill="url(#paint0_linear_172_1620)"/>
<path d="M27.81 42.42C26.522 42.42 25.234 42.28 23.946 42C22.686 41.72 21.496 41.328 20.376 40.824C19.284 40.32 18.346 39.718 17.562 39.018L19.326 34.944C20.642 35.924 21.986 36.666 23.358 37.17C24.758 37.646 26.214 37.884 27.726 37.884C29.546 37.884 30.96 37.436 31.968 36.54C33.004 35.616 33.522 34.384 33.522 32.844C33.522 31.276 33.032 30.016 32.052 29.064C31.072 28.084 29.728 27.594 28.02 27.594C26.816 27.594 25.71 27.832 24.702 28.308C23.722 28.756 22.84 29.456 22.056 30.408H18.486V12.39H36.882V16.842H23.61V26.25H22.308C23.036 25.27 24.002 24.514 25.206 23.982C26.438 23.45 27.81 23.184 29.322 23.184C31.226 23.184 32.878 23.576 34.278 24.36C35.678 25.144 36.77 26.25 37.554 27.678C38.338 29.078 38.73 30.73 38.73 32.634C38.73 34.566 38.282 36.274 37.386 37.758C36.518 39.214 35.258 40.362 33.606 41.202C31.982 42.014 30.05 42.42 27.81 42.42Z" fill="white"/>
<defs>
<linearGradient id="paint0_linear_172_1620" x1="-20.1296" y1="28" x2="85.1958" y2="28" gradientUnits="userSpaceOnUse">
<stop stop-color="#AF873A"/>
<stop offset="0.206809" stop-color="#C59C4E"/>
<stop offset="0.494128" stop-color="#E7BB68"/>
<stop offset="1" stop-color="#D4AA5C"/>
</linearGradient>
</defs>
</svg>
