<svg width="56" height="56" viewBox="0 0 56 56" fill="none" xmlns="http://www.w3.org/2000/svg">
<circle cx="28" cy="28" r="28" fill="#D9D9D9"/>
<circle cx="28" cy="28" r="28" fill="url(#paint0_linear_172_1605)"/>
<path d="M18.276 42V38.01L28.104 27.762C29.336 26.474 30.246 25.284 30.834 24.192C31.422 23.1 31.716 21.98 31.716 20.832C31.716 19.404 31.268 18.326 30.372 17.598C29.476 16.87 28.174 16.506 26.466 16.506C25.094 16.506 23.778 16.758 22.518 17.262C21.258 17.738 20.026 18.494 18.822 19.53L17.058 15.498C18.262 14.434 19.746 13.58 21.51 12.936C23.302 12.292 25.178 11.97 27.138 11.97C30.33 11.97 32.78 12.684 34.488 14.112C36.196 15.54 37.05 17.584 37.05 20.244C37.05 22.092 36.616 23.856 35.748 25.536C34.88 27.188 33.536 28.924 31.716 30.744L23.526 38.934V37.506H38.226V42H18.276Z" fill="white"/>
<defs>
<linearGradient id="paint0_linear_172_1605" x1="-20.1296" y1="28" x2="85.1958" y2="28" gradientUnits="userSpaceOnUse">
<stop stop-color="#AF873A"/>
<stop offset="0.206809" stop-color="#C59C4E"/>
<stop offset="0.494128" stop-color="#E7BB68"/>
<stop offset="1" stop-color="#D4AA5C"/>
</linearGradient>
</defs>
</svg>
