<svg width="56" height="56" viewBox="0 0 56 56" fill="none" xmlns="http://www.w3.org/2000/svg">
<circle cx="28" cy="28" r="28" fill="#D9D9D9"/>
<circle cx="28" cy="28" r="28" fill="url(#paint0_linear_172_1610)"/>
<path d="M27.138 42.42C25.094 42.42 23.134 42.126 21.258 41.538C19.382 40.922 17.842 40.082 16.638 39.018L18.402 34.944C19.718 35.952 21.076 36.694 22.476 37.17C23.904 37.646 25.402 37.884 26.97 37.884C28.874 37.884 30.316 37.506 31.296 36.75C32.276 35.994 32.766 34.888 32.766 33.432C32.766 32.032 32.276 30.982 31.296 30.282C30.344 29.554 28.944 29.19 27.096 29.19H22.308V24.864H26.634C28.23 24.864 29.504 24.472 30.456 23.688C31.408 22.904 31.884 21.826 31.884 20.454C31.884 19.166 31.436 18.186 30.54 17.514C29.672 16.842 28.412 16.506 26.76 16.506C23.792 16.506 21.174 17.514 18.906 19.53L17.142 15.498C18.346 14.378 19.83 13.51 21.594 12.894C23.386 12.278 25.262 11.97 27.222 11.97C30.302 11.97 32.71 12.67 34.446 14.07C36.21 15.442 37.092 17.36 37.092 19.824C37.092 21.588 36.588 23.114 35.58 24.402C34.6 25.662 33.242 26.502 31.506 26.922V26.418C33.55 26.754 35.132 27.594 36.252 28.938C37.4 30.254 37.974 31.906 37.974 33.894C37.974 36.526 37.008 38.612 35.076 40.152C33.144 41.664 30.498 42.42 27.138 42.42Z" fill="white"/>
<defs>
<linearGradient id="paint0_linear_172_1610" x1="-20.1296" y1="28" x2="85.1958" y2="28" gradientUnits="userSpaceOnUse">
<stop stop-color="#AF873A"/>
<stop offset="0.206809" stop-color="#C59C4E"/>
<stop offset="0.494128" stop-color="#E7BB68"/>
<stop offset="1" stop-color="#D4AA5C"/>
</linearGradient>
</defs>
</svg>
