<svg width="36" height="36" viewBox="0 0 36 36" fill="none" xmlns="http://www.w3.org/2000/svg">
<path fill-rule="evenodd" clip-rule="evenodd" d="M25.3473 23.666C27.4954 21.1276 28.6718 17.9086 28.6667 14.5833C28.6667 6.805 22.3617 0.5 14.5833 0.5C6.805 0.5 0.5 6.805 0.5 14.5833C0.5 22.3617 6.805 28.6667 14.5833 28.6667C18.0446 28.6667 21.2133 27.4187 23.666 25.3473L23.25 27.7393L31.3902 35.8795L35.8795 31.3902L27.7393 23.25L25.3473 23.666ZM14.5833 25.4167C20.5666 25.4167 25.4167 20.5666 25.4167 14.5833C25.4167 8.60008 20.5666 3.75 14.5833 3.75C8.60008 3.75 3.75 8.60008 3.75 14.5833C3.75 20.5666 8.60008 25.4167 14.5833 25.4167Z" fill="#CBA55A"/>
</svg>
