<svg width="53" height="53" viewBox="0 0 53 53" fill="none" xmlns="http://www.w3.org/2000/svg">
<g id="healthicons:security-worker-outline">
<g id="Group">
<path id="Vector" d="M26.5 14.3542C26.9393 14.3542 27.3605 14.1797 27.6711 13.8691C27.9818 13.5585 28.1562 13.1372 28.1562 12.6979C28.1562 12.2587 27.9818 11.8374 27.6711 11.5268C27.3605 11.2162 26.9393 11.0417 26.5 11.0417C26.0607 11.0417 25.6395 11.2162 25.3289 11.5268C25.0182 11.8374 24.8438 12.2587 24.8438 12.6979C24.8438 13.1372 25.0182 13.5585 25.3289 13.8691C25.6395 14.1797 26.0607 14.3542 26.5 14.3542Z" fill="#CBA55A"/>
<path id="Vector_2" fill-rule="evenodd" clip-rule="evenodd" d="M26.2968 6.64377L26.288 6.64598L26.2626 6.6504L26.171 6.66807L25.8287 6.73652C25.535 6.79615 25.1165 6.88448 24.6163 6.99821C23.617 7.22567 22.2755 7.55802 20.9284 7.97429C19.5945 8.38615 18.1978 8.89848 17.1146 9.49804C16.5757 9.79617 16.059 10.1462 15.6648 10.558C15.2728 10.9655 14.9062 11.5363 14.9062 12.2529C14.9062 14.1797 15.4473 15.5908 16.0193 16.5371C16.3008 17.0031 16.5868 17.3509 16.812 17.5894C16.8231 17.7164 16.8396 17.8588 16.8706 18.0134C16.9821 18.5942 17.2614 19.334 17.9019 20.0528C17.5969 21.3494 17.5891 22.6981 17.8791 23.9981C18.169 25.2981 18.7492 26.5158 19.5762 27.5599C20.4033 28.604 21.4557 29.4475 22.6548 30.0274C23.8539 30.6073 25.1686 30.9085 26.5006 30.9085C27.8325 30.9085 29.1472 30.6073 30.3463 30.0274C31.5454 29.4475 32.5979 28.604 33.4249 27.5599C34.2519 26.5158 34.8321 25.2981 35.122 23.9981C35.412 22.6981 35.4042 21.3494 35.0992 20.0528C35.7386 19.334 36.0179 18.5953 36.1294 18.0134C36.1604 17.8588 36.178 17.7164 36.188 17.5894C36.4887 17.2676 36.7544 16.9149 36.9807 16.5371C37.5538 15.5908 38.0938 14.1797 38.0938 12.2529C38.0938 11.5363 37.7272 10.9655 37.3352 10.558C36.941 10.1462 36.4242 9.79617 35.8854 9.49804C34.8022 8.89848 33.4055 8.38615 32.0705 7.97429C30.8541 7.60352 29.6243 7.27793 28.3837 6.99821C27.8671 6.88048 27.3488 6.77006 26.829 6.66696L26.7374 6.6504L26.712 6.64598L26.7032 6.64377L26.5 6.60623L26.2968 6.64377ZM26.5 20.4271C28.9369 20.4271 30.5733 20.1113 31.6675 19.7005C32.5939 19.3527 33.1338 18.9376 33.4452 18.5875C33.5589 18.4606 33.6484 18.3369 33.719 18.2188H19.281C19.3516 18.3369 19.4411 18.4617 19.5537 18.5875C19.8673 18.9376 20.4061 19.3527 21.3314 19.7005C22.4267 20.1113 24.0631 20.4271 26.5 20.4271ZM34.6399 16.0104H18.3601C18.1908 15.8194 18.0397 15.6132 17.9085 15.3943C17.5297 14.7682 17.119 13.7557 17.1146 12.2761C17.1515 12.2052 17.2 12.141 17.2581 12.0862C17.437 11.8996 17.7395 11.6755 18.1845 11.4303C19.0679 10.9412 20.2935 10.4819 21.5809 10.0833C22.7439 9.72963 23.9195 9.41914 25.1054 9.15244C25.569 9.04694 26.0339 8.94756 26.5 8.85432C26.5629 8.86536 26.6402 8.88192 26.7297 8.89959C27.0101 8.957 27.412 9.04313 27.8946 9.15244C28.8618 9.37217 30.1437 9.69017 31.4191 10.0844C32.7065 10.4819 33.9321 10.9412 34.8155 11.4303C35.2605 11.6755 35.563 11.8996 35.743 12.0862C35.8424 12.1911 35.8755 12.2529 35.8854 12.2761C35.881 13.7557 35.4702 14.7682 35.0904 15.3943C34.9599 15.6133 34.809 15.8196 34.6399 16.0104ZM19.875 22.0833C19.875 21.8846 19.8838 21.688 19.9004 21.4937C21.3778 22.186 23.4934 22.6354 26.5 22.6354C29.0893 22.6354 31.0149 22.3042 32.4426 21.7686C32.6745 21.6825 32.8931 21.5898 33.0996 21.4926C33.1778 22.3831 33.0749 23.2803 32.7972 24.13C32.5196 24.9797 32.0728 25.7644 31.4838 26.4369C30.8948 27.1094 30.1758 27.6557 29.3701 28.043C28.5644 28.4303 27.6887 28.6505 26.7956 28.6904C25.9026 28.7303 25.0107 28.5891 24.1737 28.2752C23.3366 27.9612 22.5718 27.4812 21.9252 26.8639C21.2786 26.2466 20.7636 25.5048 20.4113 24.6832C20.059 23.8617 19.8765 22.9773 19.875 22.0833Z" fill="#CBA55A"/>
<path id="Vector_3" d="M36.4375 37.5417C37.1739 38.2782 38.6458 39.0135 38.6458 39.0135C38.6458 39.0135 37.8751 41.9583 36.4375 41.9583C34.9998 41.9583 34.2291 39.0135 34.2291 39.0135C34.2291 39.0135 35.701 38.2782 36.4375 37.5417Z" fill="#CBA55A"/>
<path id="Vector_4" fill-rule="evenodd" clip-rule="evenodd" d="M22.6354 34.2292C22.6354 33.6435 22.8681 33.0818 23.2822 32.6676C23.6964 32.2535 24.2581 32.0208 24.8438 32.0208H28.1562C28.7419 32.0208 29.3036 32.2535 29.7178 32.6676C30.1319 33.0818 30.3646 33.6435 30.3646 34.2292V35.7551C30.3645 36.1147 30.2767 36.4688 30.1087 36.7867C29.9407 37.1046 29.6977 37.3766 29.4006 37.5792L29.5254 38.2042L33.3149 33.6031C33.4426 33.4479 33.6103 33.3305 33.7998 33.2636C33.9893 33.1967 34.1935 33.1827 34.3904 33.2233C37.2215 33.8107 40.1177 34.7007 42.3349 35.9219C44.4791 37.1033 46.375 38.8181 46.375 41.1832V45.2708C46.375 45.5637 46.2587 45.8445 46.0516 46.0516C45.8445 46.2587 45.5637 46.375 45.2708 46.375H7.72917C7.43632 46.375 7.15547 46.2587 6.9484 46.0516C6.74133 45.8445 6.625 45.5637 6.625 45.2708V41.1832C6.625 38.8313 8.55729 37.1276 10.7016 35.9561C12.9276 34.7382 15.8249 33.8416 18.6218 33.2465C18.8195 33.2045 19.025 33.2176 19.2158 33.2844C19.4066 33.3512 19.5754 33.4691 19.7039 33.6252L23.4911 38.2252L23.6104 37.5869C23.3101 37.3848 23.0641 37.1118 22.8941 36.7922C22.7241 36.4726 22.6352 36.1161 22.6354 35.754V34.2292ZM27.0742 37.206L27.7135 40.4048L26.5 41.8777L25.3252 40.4512L25.9291 37.1906C25.9729 36.955 25.9388 36.7115 25.832 36.497C25.7253 36.2825 25.5516 36.1085 25.3373 36.0014L24.8438 35.7551V34.2292H28.1562V35.7551L27.6627 36.0025C27.446 36.1107 27.2709 36.2871 27.1644 36.5046C27.0578 36.722 27.0258 36.9685 27.0731 37.206M27.475 44.1667L34.5902 35.5266C37.0856 36.0853 39.4784 36.8703 41.2682 37.8564C43.2878 38.9683 44.1667 40.1177 44.1667 41.1832V44.1667H27.475ZM18.4274 35.5509L25.5239 44.1667H8.83333V41.1832C8.83333 40.1519 9.71667 39.0113 11.7605 37.8928C13.5636 36.9068 15.9607 36.1173 18.4296 35.5509" fill="#CBA55A"/>
</g>
</g>
</svg>
